<svg width="81" height="80" viewBox="0 0 81 80" fill="none" xmlns="http://www.w3.org/2000/svg">
<rect x="0.368164" width="80.2676" height="80" rx="40" fill="white"/>
<path d="M21.8838 35.385L22.0538 35.265C21.9933 35.2992 21.9363 35.3394 21.8838 35.385Z" fill="white"/>
<path d="M54.7107 34.79C54.0759 33.964 53.3325 33.2273 52.5007 32.6C50.4083 30.9839 48.2082 29.5121 45.9157 28.195C45.8119 27.1678 45.3436 26.2118 44.5957 25.5C44.8079 25.1295 45.1064 24.8156 45.4657 24.585C45.9831 24.2221 46.6229 24.0783 47.2457 24.185H47.3707C47.5641 24.1791 47.749 24.1046 47.8924 23.9748C48.0359 23.8451 48.1285 23.6685 48.1537 23.4768C48.179 23.285 48.1352 23.0905 48.0302 22.9281C47.9253 22.7656 47.7659 22.6458 47.5807 22.59C47.5203 22.574 47.4582 22.5656 47.3957 22.565C46.4121 22.4332 45.4142 22.6662 44.5907 23.22C44.0413 23.573 43.5796 24.0467 43.2407 24.605C42.7265 24.3952 42.1761 24.2882 41.6207 24.29C40.678 24.2922 39.7617 24.6013 39.0102 25.1705C38.2588 25.7397 37.7131 26.5381 37.4557 27.445C35.4807 28.19 32.9557 29.185 30.6157 30.13C23.8557 32.89 21.8557 33.925 21.1457 34.63L21.1007 34.67C21.0299 34.7402 20.9663 34.8172 20.9107 34.9C20.8807 34.94 20.8607 34.985 20.8307 35.03C20.6982 35.255 20.6147 35.5055 20.5857 35.765C20.5808 35.8316 20.5808 35.8984 20.5857 35.965V51.95C20.5857 52.457 20.7868 52.9434 21.1448 53.3024C21.5029 53.6613 21.9887 53.8637 22.4957 53.865H53.2307C53.7382 53.8637 54.2245 53.6615 54.5834 53.3027C54.9422 52.9438 55.1444 52.4575 55.1457 51.95V36C55.1445 35.5586 54.9908 35.1312 54.7107 34.79ZM41.6157 25.9C42.1537 25.9 42.6796 26.0595 43.1269 26.3584C43.5742 26.6573 43.9228 27.0821 44.1287 27.5791C44.3345 28.0761 44.3884 28.623 44.2835 29.1507C44.1785 29.6783 43.9195 30.1629 43.5391 30.5433C43.1587 30.9237 42.674 31.1828 42.1464 31.2877C41.6187 31.3927 41.0718 31.3388 40.5748 31.133C40.0778 30.9271 39.653 30.5785 39.3541 30.1312C39.0553 29.6839 38.8957 29.158 38.8957 28.62C38.897 27.899 39.184 27.208 39.6939 26.6981C40.2037 26.1883 40.8947 25.9013 41.6157 25.9ZM37.4357 29.735C37.6637 30.5915 38.1493 31.3573 38.8269 31.9287C39.5044 32.5001 40.3412 32.8496 41.2239 32.9298C42.1066 33.0099 42.9926 32.817 43.762 32.3771C44.5314 31.9371 45.1471 31.2714 45.5257 30.47C47.6608 31.7492 49.6935 33.1918 51.6057 34.785H50.8207C37.7707 34.97 29.0857 35.025 24.8607 34.955C28.0607 33.45 33.6757 31.175 37.4357 29.735ZM53.0007 50.805V51.715H22.7057V48.13C23.6629 48.8001 24.8075 49.1502 25.9757 49.13H26.3707C27.6569 49.1053 28.912 48.7302 30.0007 48.045C30.6069 47.6372 31.3202 47.418 32.0507 47.415C32.7059 47.4173 33.3414 47.6391 33.8557 48.045C34.8456 48.7591 36.0404 49.1328 37.2607 49.11H37.6507C38.927 49.089 40.174 48.7246 41.2607 48.055C41.8651 47.6474 42.5768 47.4281 43.3057 47.425C43.9623 47.4281 44.5991 47.6498 45.1157 48.055C46.1008 48.7624 47.2882 49.1325 48.5007 49.11H48.8957C50.1715 49.0868 51.4172 48.7188 52.5007 48.045C52.6807 47.95 52.8407 47.86 53.0007 47.78V50.805ZM53.0007 42.305V45.5C52.4603 45.6682 51.9417 45.8998 51.4557 46.19C50.6492 46.7001 49.715 46.9722 48.7607 46.975C47.867 47.0531 46.976 46.7965 46.2607 46.255C45.4011 45.6237 44.3622 45.2839 43.2957 45.285C42.2013 45.2867 41.1299 45.5988 40.2057 46.185C39.3957 46.6939 38.4573 46.9611 37.5007 46.955C36.6069 47.0336 35.7158 46.777 35.0007 46.235C34.1411 45.6037 33.1022 45.2639 32.0357 45.265C30.9404 45.2649 29.8679 45.5789 28.9457 46.17C28.1392 46.6801 27.205 46.9522 26.2507 46.955C25.3569 47.0341 24.4656 46.7774 23.7507 46.235C23.4246 46.0183 23.0819 45.8277 22.7257 45.665V42.38C23.6829 43.0501 24.8275 43.4002 25.9957 43.38H26.3207H26.3907C27.6689 43.3485 28.9153 42.9756 30.0007 42.3C30.6058 41.89 31.3198 41.6706 32.0507 41.67C32.7063 41.67 33.3426 41.892 33.8557 42.3C34.8467 43.0118 36.0408 43.3853 37.2607 43.365H37.5857H37.6507C38.9262 43.3392 40.172 42.9751 41.2607 42.31C41.864 41.9001 42.5764 41.6807 43.3057 41.68C43.9627 41.6808 44.6003 41.9027 45.1157 42.31C46.1018 43.0155 47.2885 43.3853 48.5007 43.365H48.8257H48.8957C50.1708 43.3372 51.4153 42.9695 52.5007 42.3C52.6807 42.2 52.8407 42.11 53.0007 42.03V42.305ZM53.0007 38.18V39.71C52.4603 39.8782 51.9417 40.1098 51.4557 40.4C50.6497 40.9119 49.7155 41.1857 48.7607 41.19C47.8666 41.2643 46.9764 41.0061 46.2607 40.465C45.3964 39.8325 44.3518 39.4942 43.2807 39.5C42.186 39.4992 41.1138 39.8115 40.1907 40.4C39.3883 40.918 38.4558 41.1988 37.5007 41.21C36.6082 41.2914 35.7172 41.0384 35.0007 40.5C34.1421 39.856 33.099 39.5054 32.0257 39.5C30.9309 39.4984 29.8585 39.8107 28.9357 40.4C28.1297 40.9119 27.1955 41.1857 26.2407 41.19C25.3462 41.2676 24.4549 41.0092 23.7407 40.465C23.4135 40.2502 23.0709 40.0597 22.7157 39.895V37C23.9307 37.075 26.0807 37.12 29.9657 37.12C34.3457 37.12 40.9257 37.065 50.8607 36.925L53.0007 36.915V38.18Z" fill="#032626"/>
</svg>
