<svg width="24" height="25" viewBox="0 0 24 25" fill="none" xmlns="http://www.w3.org/2000/svg">
<path d="M16.3831 8.77344H15.2839C15.0448 8.77344 14.8175 8.88828 14.6769 9.08516L10.9925 14.1945L9.32373 11.8789C9.18311 11.6844 8.95811 11.5672 8.7167 11.5672H7.61748C7.46514 11.5672 7.37608 11.7406 7.46514 11.8648L10.3855 15.9148C10.4544 16.0111 10.5454 16.0896 10.6508 16.1437C10.7561 16.1978 10.8729 16.2261 10.9913 16.2261C11.1098 16.2261 11.2265 16.1978 11.3319 16.1437C11.4372 16.0896 11.5282 16.0111 11.5972 15.9148L16.5331 9.07109C16.6245 8.94688 16.5355 8.77344 16.3831 8.77344Z" fill="#0DC0C0"/>
<path d="M12 2C6.20156 2 1.5 6.70156 1.5 12.5C1.5 18.2984 6.20156 23 12 23C17.7984 23 22.5 18.2984 22.5 12.5C22.5 6.70156 17.7984 2 12 2ZM12 21.2188C7.18594 21.2188 3.28125 17.3141 3.28125 12.5C3.28125 7.68594 7.18594 3.78125 12 3.78125C16.8141 3.78125 20.7188 7.68594 20.7188 12.5C20.7188 17.3141 16.8141 21.2188 12 21.2188Z" fill="#0DC0C0"/>
</svg>
