<svg width="81" height="80" viewBox="0 0 81 80" fill="none" xmlns="http://www.w3.org/2000/svg">
<rect x="0.368164" width="80.2676" height="80" rx="40" fill="white"/>
<path d="M23 41.5C23 31.6 31.1 23.5 41 23.5C50.9 23.5 59 31.6 59 41.5" stroke="#032626" stroke-width="2" stroke-miterlimit="10" stroke-linecap="round" stroke-linejoin="round"/>
<path d="M24.5 40H21.5V43H24.5V40Z" stroke="#032626" stroke-width="2" stroke-miterlimit="10" stroke-linecap="round" stroke-linejoin="round"/>
<path d="M60.5 40H57.5V43H60.5V40Z" stroke="#032626" stroke-width="2" stroke-miterlimit="10" stroke-linecap="round" stroke-linejoin="round"/>
<path d="M42.5 22H39.5V25H42.5V22Z" stroke="#032626" stroke-width="2" stroke-miterlimit="10" stroke-linecap="round" stroke-linejoin="round"/>
<path d="M23 25C23.8284 25 24.5 24.3284 24.5 23.5C24.5 22.6716 23.8284 22 23 22C22.1716 22 21.5 22.6716 21.5 23.5C21.5 24.3284 22.1716 25 23 25Z" stroke="#032626" stroke-width="2" stroke-miterlimit="10" stroke-linecap="round" stroke-linejoin="round"/>
<path d="M59 25C59.8284 25 60.5 24.3284 60.5 23.5C60.5 22.6716 59.8284 22 59 22C58.1716 22 57.5 22.6716 57.5 23.5C57.5 24.3284 58.1716 25 59 25Z" stroke="#032626" stroke-width="2" stroke-miterlimit="10" stroke-linecap="round" stroke-linejoin="round"/>
<path d="M23 23.5H59" stroke="#032626" stroke-width="2" stroke-miterlimit="10" stroke-linecap="round" stroke-linejoin="round"/>
<path d="M41 31L32 44.8C34.4 47.5 36.2 50.95 37.1 55H41H44.9C45.8 50.95 47.6 47.35 50 44.8L41 31Z" stroke="#032626" stroke-width="2" stroke-miterlimit="10" stroke-linecap="round" stroke-linejoin="round"/>
<path d="M41 41.5V31.45" stroke="#032626" stroke-width="2" stroke-miterlimit="10" stroke-linecap="round" stroke-linejoin="round"/>
<path d="M41 47.5C42.6569 47.5 44 46.1569 44 44.5C44 42.8431 42.6569 41.5 41 41.5C39.3431 41.5 38 42.8431 38 44.5C38 46.1569 39.3431 47.5 41 47.5Z" stroke="#032626" stroke-width="2" stroke-miterlimit="10" stroke-linecap="round" stroke-linejoin="round"/>
<path d="M45.5 55H36.5V59.5H45.5V55Z" stroke="#032626" stroke-width="2" stroke-miterlimit="10" stroke-linecap="round" stroke-linejoin="round"/>
</svg>
