<svg width="20" height="20" viewBox="0 0 20 20" fill="none" xmlns="http://www.w3.org/2000/svg">
<g opacity="0.9">
<path d="M5.59148 7.75835C5.66858 7.6811 5.76015 7.61981 5.86096 7.57799C5.96177 7.53617 6.06984 7.51465 6.17898 7.51465C6.28812 7.51465 6.39619 7.53617 6.497 7.57799C6.59781 7.61981 6.68939 7.6811 6.76648 7.75835L9.99981 10.9917L13.2331 7.75835C13.389 7.60254 13.6003 7.515 13.8206 7.515C14.041 7.515 14.2523 7.60254 14.4081 7.75835C14.564 7.91417 14.6515 8.1255 14.6515 8.34585C14.6515 8.56621 14.564 8.77754 14.4081 8.93335L10.5831 12.7584C10.5061 12.8356 10.4145 12.8969 10.3137 12.9387C10.2129 12.9805 10.1048 13.0021 9.99565 13.0021C9.88651 13.0021 9.77844 12.9805 9.67763 12.9387C9.57682 12.8969 9.48524 12.8356 9.40815 12.7584L5.58315 8.93335C5.26648 8.61669 5.26648 8.08335 5.59148 7.75835Z" fill="white"/>
</g>
</svg>
