<svg width="24" height="24" viewBox="0 0 24 24" fill="none" xmlns="http://www.w3.org/2000/svg">
<g clip-path="url(#clip0_601_612)">
<path d="M21.5531 3.99994C21.4622 3.99058 21.3706 3.99058 21.2798 3.99994H2.6131C2.49346 4.00179 2.37462 4.01972 2.25977 4.05328L11.8931 13.6466L21.5531 3.99994Z" fill="white"/>
<path d="M22.5404 4.92664L12.8338 14.5933C12.584 14.8416 12.246 14.981 11.8938 14.981C11.5415 14.981 11.2036 14.8416 10.9538 14.5933L1.33378 4.99997C1.3042 5.10866 1.28852 5.22067 1.28711 5.3333V18.6666C1.28711 19.0203 1.42759 19.3594 1.67763 19.6094C1.92768 19.8595 2.26682 20 2.62044 20H21.2871C21.6407 20 21.9799 19.8595 22.2299 19.6094C22.48 19.3594 22.6204 19.0203 22.6204 18.6666V5.3333C22.6151 5.19441 22.5881 5.05719 22.5404 4.92664V4.92664ZM3.53378 18.6666H2.60711V17.7133L7.45378 12.9066L8.39378 13.8466L3.53378 18.6666ZM21.2738 18.6666H20.3404L15.4804 13.8466L16.4204 12.9066L21.2671 17.7133L21.2738 18.6666Z" fill="white"/>
</g>
<defs>
<clipPath id="clip0_601_612">
<rect width="24" height="24" fill="white"/>
</clipPath>
</defs>
</svg>
