<svg width="80" height="80" viewBox="0 0 80 80" fill="none" xmlns="http://www.w3.org/2000/svg">
<rect width="80" height="80" rx="40" fill="#E7F9F9"/>
<g clip-path="url(#clip0_23_56)">
<g filter="url(#filter0_d_23_56)">
<path fill-rule="evenodd" clip-rule="evenodd" d="M44.408 26.427C42.9305 26.6518 41.4605 26.9229 40 27.24C38.5395 26.9229 37.0695 26.6518 35.592 26.427C36.837 26.917 38.102 27.504 39.437 28.149C39.6057 28.2307 39.748 28.3583 39.8476 28.5171C39.9471 28.6759 40 28.8596 40 29.047C40 28.664 40.218 28.315 40.563 28.149C41.898 27.504 43.163 26.916 44.408 26.427V26.427ZM40 51.401C40 51.979 39.527 52.401 39 52.408V52.605C32.731 51.544 28.302 51.477 22 52.583V29.033C22.6639 28.881 23.3307 28.742 24 28.616V26.583C22.974 26.767 21.9 26.995 20.757 27.271C20.5408 27.3235 20.3486 27.4473 20.2113 27.6223C20.074 27.7974 19.9995 28.0135 20 28.236V53.775C20 54.408 20.583 54.88 21.204 54.762C28.28 53.412 32.729 53.492 39.808 54.777C39.9349 54.8003 40.0651 54.8003 40.192 54.777C47.271 53.492 51.72 53.412 58.796 54.762C58.9419 54.7902 59.0923 54.7859 59.2363 54.7495C59.3804 54.713 59.5147 54.6452 59.6296 54.551C59.7445 54.4568 59.8373 54.3384 59.9013 54.2043C59.9653 54.0702 59.999 53.9236 60 53.775V28.237C60.0007 28.0144 59.9264 27.798 59.789 27.6227C59.6517 27.4475 59.4594 27.3236 59.243 27.271C58.1691 27.0096 57.0876 26.7802 56 26.583V28.616C56.644 28.736 57.308 28.876 58 29.033V52.583C51.698 51.477 47.269 51.543 41 52.605V52.408C40.473 52.4 40 51.978 40 51.401V51.401Z" fill="#0DC0C0"/>
<path fill-rule="evenodd" clip-rule="evenodd" d="M25 26.5071V49.0551C25.0017 49.0582 25.0041 49.061 25.007 49.0631C25.0143 49.069 25.0229 49.0732 25.032 49.0755C25.0412 49.0777 25.0508 49.0779 25.06 49.0761C30.4 48.0961 34.413 49.2961 38.975 51.4061C38.9776 51.4071 38.9803 51.4078 38.983 51.4081H38.985C38.9893 51.4077 38.9934 51.4063 38.997 51.4041C38.9981 51.4035 38.9991 51.4028 39 51.4021V29.0481C34.02 26.6441 30.266 25.1681 25 26.5071ZM24.474 24.5771C30.493 23.0361 34.821 24.8091 39.872 27.2481C40.2102 27.4117 40.4955 27.6673 40.695 27.9857C40.8946 28.3041 41.0003 28.6723 41 29.0481V51.4001C41 52.8871 39.453 53.8281 38.136 53.2201C33.756 51.1951 30.186 50.1681 25.421 51.0431C24.211 51.2661 23 50.3641 23 49.0551V26.4921C23 25.6121 23.583 24.8051 24.474 24.5771V24.5771Z" fill="#0DC0C0"/>
<path fill-rule="evenodd" clip-rule="evenodd" d="M55.0002 26.5071V49.0551C54.9984 49.0584 54.9956 49.0612 54.9922 49.0631C54.985 49.0689 54.9766 49.073 54.9677 49.0753C54.9587 49.0775 54.9493 49.0778 54.9402 49.0761C49.6002 48.0961 45.5882 49.2961 41.0252 51.4061C41.0227 51.4071 41.02 51.4078 41.0172 51.4081H41.0152C41.011 51.4077 41.0069 51.4063 41.0032 51.4041L41.0002 51.4001V29.0471C45.9802 26.6431 49.7342 25.1671 55.0002 26.5071V26.5071ZM55.5262 24.5771C49.5072 23.0361 45.1792 24.8091 40.1282 27.2481C39.7901 27.4119 39.505 27.6676 39.3055 27.9859C39.106 28.3043 39.0002 28.6724 39.0002 29.0481V51.4021C39.0002 52.8891 40.5472 53.8301 41.8642 53.2211C46.2442 51.1961 49.8142 50.1691 54.5792 51.0441C55.7892 51.2661 57.0002 50.3651 57.0002 49.0551V26.4921C57.0021 26.0545 56.8583 25.6287 56.5914 25.282C56.3245 24.9352 55.9497 24.6872 55.5262 24.5771V24.5771ZM27.0102 45.0031C30.6802 44.9651 32.7272 45.3351 36.6222 46.9261L37.3782 45.0741C33.2512 43.3891 30.9402 42.9621 26.9902 43.0031L27.0102 45.0031ZM27.0102 41.0031C30.6802 40.9651 32.7272 41.3351 36.6222 42.9261L37.3782 41.0741C33.2512 39.3891 30.9402 38.9621 26.9902 39.0031L27.0102 41.0031ZM27.0102 37.0031C30.6802 36.9651 32.7272 37.3351 36.6222 38.9261L37.3782 37.0741C33.2512 35.3891 30.9402 34.9621 26.9902 35.0031L27.0102 37.0031ZM29.5002 29.0001V32.0001H27.5002V29.0001H29.5002ZM33.0002 30.0001V33.0001H31.0002V30.0001H33.0002ZM36.5002 31.0001V34.0001H34.5002V31.0001H36.5002Z" fill="#0DC0C0"/>
<path fill-rule="evenodd" clip-rule="evenodd" d="M52.9901 45.003C49.3201 44.965 47.2731 45.335 43.3781 46.926L42.6221 45.074C46.7491 43.389 49.0601 42.962 53.0101 43.003L52.9901 45.003V45.003ZM52.9901 41.003C49.3201 40.965 47.2731 41.335 43.3781 42.926L42.6221 41.074C46.7491 39.389 49.0601 38.962 53.0101 39.003L52.9901 41.003V41.003ZM52.9901 37.003C49.3201 36.965 47.2731 37.335 43.3781 38.926L42.6221 37.074C46.7491 35.389 49.0601 34.962 53.0101 35.003L52.9901 37.003V37.003ZM50.5001 29V32H52.5001V29H50.5001ZM47.0001 30V33H49.0001V30H47.0001ZM43.5001 31V34H45.5001V31H43.5001Z" fill="#0DC0C0"/>
</g>
</g>
<defs>
<filter id="filter0_d_23_56" x="16" y="24.0006" width="50" height="40.7938" filterUnits="userSpaceOnUse" color-interpolation-filters="sRGB">
<feFlood flood-opacity="0" result="BackgroundImageFix"/>
<feColorMatrix in="SourceAlpha" type="matrix" values="0 0 0 0 0 0 0 0 0 0 0 0 0 0 0 0 0 0 127 0" result="hardAlpha"/>
<feOffset dx="1" dy="5"/>
<feGaussianBlur stdDeviation="2.5"/>
<feComposite in2="hardAlpha" operator="out"/>
<feColorMatrix type="matrix" values="0 0 0 0 0.368627 0 0 0 0 0.545098 0 0 0 0 0.494118 0 0 0 0.2 0"/>
<feBlend mode="normal" in2="BackgroundImageFix" result="effect1_dropShadow_23_56"/>
<feBlend mode="normal" in="SourceGraphic" in2="effect1_dropShadow_23_56" result="shape"/>
</filter>
<clipPath id="clip0_23_56">
<rect width="48" height="48" fill="white" transform="translate(16 16)"/>
</clipPath>
</defs>
</svg>
