<svg width="81" height="80" viewBox="0 0 81 80" fill="none" xmlns="http://www.w3.org/2000/svg">
<rect x="0.368164" width="80.2676" height="80" rx="40" fill="white"/>
<path d="M32.875 36.0375C33.3724 36.0375 33.8495 35.8399 34.2013 35.4881C34.553 35.1364 34.7506 34.6593 34.7506 34.1619C34.7506 33.6644 34.553 33.1874 34.2013 32.8356C33.8495 32.4839 33.3724 32.2863 32.875 32.2863C32.3777 32.2863 31.9008 32.4838 31.5492 32.8354C31.1975 33.1871 31 33.664 31 34.1613C31 34.6585 31.1975 35.1354 31.5492 35.4871C31.9008 35.8387 32.3777 36.0375 32.875 36.0375Z" fill="#032626"/>
<path d="M24.7497 37.4875L23.1622 36.275C22.8817 36.0682 22.6532 35.7988 22.4949 35.4883C22.3366 35.1779 22.2527 34.8348 22.2501 34.4863C22.2474 34.1377 22.326 33.7934 22.4795 33.4805C22.6331 33.1677 22.8574 32.8949 23.1347 32.6837L25.3534 30.815C26.0853 28.7488 27.4394 26.96 29.2295 25.6949C31.0196 24.4297 33.1577 23.7503 35.3497 23.75C37.679 23.7476 39.9442 24.5133 41.7944 25.9283C43.6447 27.3433 44.9769 29.3289 45.5847 31.5775L57.6047 34.7275C58.2184 34.8875 58.7618 35.2464 59.1499 35.748C59.538 36.2497 59.7489 36.8658 59.7497 37.5C59.7497 46.3625 53.1634 53.685 44.6184 54.8412L44.4622 55.625H46.6872C47.5997 55.625 48.3622 56.275 48.5372 57.1375C48.5747 57.325 48.4247 57.5 48.2247 57.5H32.5622C32.3622 57.5 32.2122 57.325 32.2622 57.1375C32.4372 56.275 33.1872 55.625 34.0997 55.625H36.3497L36.6572 54.0875C29.7347 51.755 24.7497 45.21 24.7497 37.5V37.4875ZM40.3997 55.625H42.5872L42.7134 54.9938C41.2753 55.0321 39.8378 54.8935 38.4334 54.5813L38.2247 55.625H40.3997ZM35.3497 26.25C33.2015 26.2503 31.1415 27.1038 29.6225 28.6228C28.1035 30.1418 27.25 32.2018 27.2497 34.35V37.5C27.2497 45.785 33.9647 52.5 42.2497 52.5C45.0079 52.5046 47.7134 51.7448 50.0659 50.305C49.2536 50.5026 48.4219 50.6099 47.5859 50.625H47.5747C43.4084 50.625 38.9422 48.5625 36.6072 45.0637C36.5616 44.9955 36.53 44.9189 36.514 44.8383C36.4981 44.7578 36.4981 44.675 36.5142 44.5945C36.5303 44.514 36.5621 44.4374 36.6077 44.3692C36.6534 44.301 36.712 44.2424 36.7803 44.1969C36.8486 44.1513 36.9252 44.1197 37.0057 44.1037C37.0862 44.0878 37.1691 44.0878 37.2496 44.1039C37.3301 44.12 37.4067 44.1518 37.4749 44.1974C37.5431 44.2431 37.6016 44.3017 37.6472 44.37C39.7159 47.47 43.7597 49.3737 47.5684 49.375C49.8259 49.3301 52.0043 48.536 53.7609 47.1175C56.0195 44.4222 57.2549 41.0165 57.2497 37.5C57.249 37.4183 57.2211 37.3392 57.1704 37.2751C57.1197 37.211 57.049 37.1657 56.9697 37.1462L44.8947 33.9812C44.4866 33.8688 44.1146 33.6527 43.8147 33.3539C43.5149 33.0552 43.2974 32.6839 43.1834 32.2762L43.1809 32.2675L43.1784 32.2587C42.719 30.5339 41.7022 29.0094 40.2862 27.9226C38.8702 26.8358 37.1346 26.2478 35.3497 26.25Z" fill="#032626"/>
</svg>
