<svg width="24" height="24" viewBox="0 0 24 24" fill="none" xmlns="http://www.w3.org/2000/svg">
<g clip-path="url(#clip0_601_630)">
<path d="M21 6.70478C20.326 6.98925 19.611 7.17597 18.879 7.25875C19.6415 6.82334 20.227 6.13386 20.5027 5.31235C19.7778 5.72215 18.9847 6.01089 18.1577 6.16608C17.484 5.48235 16.5243 5.05505 15.4621 5.05505C13.4226 5.05505 11.7691 6.63029 11.7691 8.57314C11.7691 8.84892 11.8018 9.1174 11.8647 9.37496C8.79558 9.22819 6.07448 7.82759 4.25304 5.69905C3.93523 6.21866 3.75312 6.82307 3.75312 7.46774C3.75312 8.68835 4.40513 9.76515 5.39597 10.3961C4.80953 10.3786 4.23599 10.2277 3.72323 9.95599C3.72302 9.97073 3.72302 9.98546 3.72302 10.0003C3.72302 11.7049 4.99596 13.1268 6.68529 13.45C6.14148 13.5909 5.57107 13.6115 5.01762 13.5103C5.48752 14.908 6.85137 15.9251 8.46729 15.9536C7.20342 16.8972 5.61105 17.4597 3.88095 17.4597C3.58282 17.4597 3.28891 17.443 3 17.4105C4.63427 18.4087 6.57539 18.9911 8.66086 18.9911C15.4535 18.9911 19.1679 13.6302 19.1679 8.98115C19.1679 8.82855 19.1644 8.67683 19.1573 8.52598C19.8802 8.02807 20.5042 7.41135 21 6.70478Z" fill="white"/>
</g>
<defs>
<clipPath id="clip0_601_630">
<rect width="18" height="14" fill="white" transform="translate(3 5)"/>
</clipPath>
</defs>
</svg>
