<svg width="24" height="24" viewBox="0 0 24 24" fill="none" xmlns="http://www.w3.org/2000/svg">
<path d="M6.72818 2.31715L8.38847 1.81658C8.93642 1.65164 9.52566 1.69166 10.0463 1.92918C10.5669 2.16669 10.9833 2.58549 11.2179 3.10744L12.3819 5.69601C12.5839 6.14509 12.6402 6.64616 12.5429 7.12888C12.4456 7.61159 12.1996 8.05171 11.8393 8.38744L10.0676 10.0383C9.83018 10.2637 10.0102 11.1423 10.8776 12.6457C11.7459 14.15 12.417 14.7449 12.7265 14.6523L15.0476 13.9426C15.5181 13.7987 16.0218 13.8056 16.4882 13.9624C16.9546 14.1192 17.3602 14.418 17.6482 14.8169L19.3025 17.1097C19.6366 17.5727 19.7913 18.1413 19.7379 18.7097C19.6844 19.2782 19.4265 19.808 19.0119 20.2006L17.733 21.4117C17.3202 21.8027 16.811 22.0771 16.2575 22.2071C15.704 22.337 15.1259 22.3178 14.5822 22.1514C11.9028 21.3312 9.42132 18.8969 7.10447 14.8829C4.78247 10.8629 3.90561 7.47201 4.51675 4.70173C4.64001 4.14351 4.90991 3.62827 5.29863 3.20912C5.68735 2.78997 6.18082 2.48206 6.72818 2.31715Z" fill="#0DC0C0"/>
</svg>
