<svg width="24" height="24" viewBox="0 0 24 24" fill="none" xmlns="http://www.w3.org/2000/svg">
<path d="M18.3904 9.9901C18.3904 14.1401 14.3404 19.1301 12.6904 20.9901C12.3204 21.4001 11.6804 21.4001 11.3104 20.9901C9.66035 19.1301 5.61035 14.1401 5.61035 9.9901C5.61035 6.4601 8.47035 3.6001 12.0004 3.6001C15.5304 3.6001 18.3904 6.4601 18.3904 9.9901Z" fill="white"/>
<path d="M11.9907 12.5501C13.4045 12.5501 14.5507 11.404 14.5507 9.99011C14.5507 8.57627 13.4045 7.43011 11.9907 7.43011C10.5768 7.43011 9.43066 8.57627 9.43066 9.99011C9.43066 11.404 10.5768 12.5501 11.9907 12.5501Z" fill="#032626"/>
</svg>
