<svg width="81" height="80" viewBox="0 0 81 80" fill="none" xmlns="http://www.w3.org/2000/svg">
<rect x="0.368164" width="80.2676" height="80" rx="40" fill="white"/>
<path d="M33.7812 26.875L34.5202 28.6797C34.9809 29.8019 35.6069 32.6067 35.4626 33.9297C33.6736 35.0322 32.5764 36.1084 31.7298 37.0062C30.6956 36.1701 28.6494 34.75 25.25 34.75H23.9375V36.0625C23.9375 38.5746 24.8444 40.6156 25.1686 41.3125C24.8405 42.0042 23.9375 43.9729 23.9375 46.5625V47.875H25.25C28.6231 47.875 30.6942 46.4496 31.7311 45.6188C33.2838 47.2188 35.498 48.9053 38.2936 50.1719C38.1702 50.9869 38.0731 52.1249 38.4157 53.4531L38.6624 54.4375H39.6875C41.3071 54.4375 42.7023 53.6329 43.8298 52.9202C44.7524 52.3349 45.1987 51.9254 45.4297 51.7298C50.6495 51.5461 53.9819 48.7308 55.7656 45.9469C57.611 43.0713 58.0625 40.2048 58.0625 40.2048L58.1032 39.8766L57.9811 39.5485C57.9811 39.5485 54.9755 31.2942 46.8249 30.8939C45.9586 29.8439 44.7472 28.9724 43.0514 28.2689C41.0459 27.4394 38.5233 26.875 35.75 26.875H33.7812ZM37.5954 29.6641C39.2517 29.8478 40.8005 30.1825 42.0251 30.6891C43.7024 31.3821 44.8706 32.3757 45.1423 32.8219L45.5124 33.4375H46.25C52.8072 33.4375 55.1658 39.6456 55.3561 40.1641C55.2642 40.6458 54.8836 42.4767 53.5514 44.5531C52.0276 46.9261 49.5614 49.1875 44.9375 49.1875H44.4453L44.0765 49.5156C44.0765 49.5156 43.3835 50.1063 42.4359 50.7048C41.9371 51.0184 41.5132 51.0749 41 51.2796C41.0525 50.6798 41 49.8031 41 49.8031L41.2874 48.6546L40.2204 48.2845C36.9706 47.0442 34.2065 44.7066 32.7969 43.0765L31.8939 42.0094L30.9095 42.9938C30.9095 42.9938 29.1613 44.2197 26.8906 44.7985C27.2292 43.2603 27.7516 41.8874 27.7516 41.8874L28.0391 41.3125L27.7516 40.7376C27.7516 40.7376 27.1833 39.2309 26.8499 37.6204C29.2689 38.1546 30.9095 39.6312 30.9095 39.6312L31.8939 40.6156L32.7969 39.5485C33.9716 38.2216 37.1347 34.9141 41.7796 34.2985L41.4095 31.7142C40.1534 31.8796 39.0575 32.2431 38.0062 32.6592C37.9392 31.5567 37.8828 30.6077 37.5954 29.6641ZM49.5312 38.6875C49.0091 38.6875 48.5083 38.8949 48.1391 39.2641C47.7699 39.6333 47.5625 40.1341 47.5625 40.6562C47.5625 41.1784 47.7699 41.6792 48.1391 42.0484C48.5083 42.4176 49.0091 42.625 49.5312 42.625C50.0534 42.625 50.5542 42.4176 50.9234 42.0484C51.2926 41.6792 51.5 41.1784 51.5 40.6562C51.5 40.1341 51.2926 39.6333 50.9234 39.2641C50.5542 38.8949 50.0534 38.6875 49.5312 38.6875Z" fill="#032626"/>
</svg>
