<svg width="24" height="24" viewBox="0 0 24 24" fill="none" xmlns="http://www.w3.org/2000/svg">
<path d="M18.3904 9.9901C18.3904 14.1401 14.3404 19.1301 12.6904 20.9901C12.3204 21.4001 11.6804 21.4001 11.3104 20.9901C9.66035 19.1301 5.61035 14.1401 5.61035 9.9901C5.61035 6.4601 8.47035 3.6001 12.0004 3.6001C15.5304 3.6001 18.3904 6.4601 18.3904 9.9901Z" fill="#0DC0C0"/>
<path d="M11.9907 12.5501C13.4045 12.5501 14.5507 11.4039 14.5507 9.9901C14.5507 8.57625 13.4045 7.4301 11.9907 7.4301C10.5768 7.4301 9.43066 8.57625 9.43066 9.9901C9.43066 11.4039 10.5768 12.5501 11.9907 12.5501Z" fill="white"/>
</svg>
