<svg width="81" height="80" viewBox="0 0 81 80" fill="none" xmlns="http://www.w3.org/2000/svg">
<rect x="0.368164" width="80.2676" height="80" rx="40" fill="white"/>
<path d="M60.5 51.2809V42.25C60.5 41.8358 60.1642 41.5 59.75 41.5H59V36.7309C59 35.2279 58.0469 33.8844 56.6284 33.3877L46.8863 29.9776L49.0679 27.7959C49.3609 27.503 49.3609 27.0282 49.0679 26.7353L48.5376 26.205L50.1286 24.6139C50.4216 24.3211 50.4216 23.8462 50.1286 23.5533L52.7803 20.9017C53.0732 20.6088 53.0732 20.134 52.7803 19.8411L50.659 17.7198C50.3661 17.427 49.8913 17.427 49.5984 17.7198L46.9468 20.3715C46.6539 20.0786 46.179 20.0786 45.8862 20.3715L44.2951 21.9625L43.7648 21.4322C43.4719 21.1393 42.9971 21.1393 42.7042 21.4322L34.7603 29.3761L33.4716 28.0874C32.7201 27.3358 31.4972 27.3358 30.7457 28.0874L29.457 29.3761C29.1641 29.6689 29.1641 30.1438 29.457 30.4367L28.529 31.3648C27.8711 32.0227 27.8711 33.0933 28.529 33.7513L29.3245 34.5467C29.6534 34.8757 30.0855 35.0402 30.5177 35.0402C30.9499 35.0402 31.382 34.8758 31.711 34.5467L32.639 33.6186L33.1693 34.149L32.2413 35.077C31.9226 35.3957 31.7471 35.8195 31.7471 36.2702C31.7471 36.721 31.9227 37.1447 32.2413 37.4635L33.0368 38.259C33.3658 38.5879 33.7979 38.7525 34.23 38.7525C34.6621 38.7525 35.0943 38.588 35.4233 38.259L36.3513 37.3309L36.8817 37.8613L35.9535 38.7893C35.2955 39.4472 35.2955 40.5179 35.9535 41.1758L36.749 41.9713C37.078 42.3003 37.5101 42.4648 37.9422 42.4648C38.3743 42.4648 38.8065 42.3002 39.1355 41.9713L40.0636 41.0432C40.2101 41.1897 40.402 41.2629 40.594 41.2629C40.786 41.2629 40.9779 41.1897 41.1243 41.0432L42.4131 39.7546C43.1646 39.003 43.1646 37.7802 42.4131 37.0287L41.1244 35.74L43.4178 33.4466L49.4383 37.3161C50.138 37.7657 50.467 38.6381 50.2382 39.4379L49.6489 41.5H44.75C44.3358 41.5 44 41.8358 44 42.25V51.25H30.5V49.75H32.75C33.1642 49.75 33.5 49.4142 33.5 49V47.5H35C35.4142 47.5 35.75 47.1642 35.75 46.75V43.75C35.75 43.3358 35.4142 43 35 43H21.5C21.0858 43 20.75 43.3358 20.75 43.75V46.75C20.75 47.1642 21.0858 47.5 21.5 47.5H23V49C23 49.4142 23.3358 49.75 23.75 49.75H26V51.25H21.9551C20.0499 51.25 18.5 52.7999 18.5 54.7051V56.7463C18.5 58.2647 19.7353 59.5 21.2538 59.5H24.5V61.75C24.5 62.1642 24.8358 62.5 25.25 62.5H29.75C30.0341 62.5 30.2937 62.3395 30.4208 62.0854L31.7135 59.5H50.2865L51.5792 62.0854C51.7062 62.3395 51.9659 62.5 52.25 62.5H56.75C57.1642 62.5 57.5 62.1642 57.5 61.75V59.5H60.7462C62.2647 59.5 63.5 58.2647 63.5 56.7462V54.705C63.5 52.9542 62.1907 51.5044 60.5 51.2809ZM50.1287 19.3106L51.1894 20.3713L49.0681 22.4926L48.0074 21.4319L50.1287 19.3106ZM46.4163 21.9623L48.5377 24.0837L47.477 25.1444L45.3556 23.023L46.4163 21.9623ZM30.6501 33.486C30.5769 33.5591 30.458 33.559 30.3849 33.486L29.5894 32.6905C29.5163 32.6174 29.5163 32.4984 29.5894 32.4253L30.5174 31.4972L31.5781 32.5578L30.6501 33.486ZM34.3624 37.1983C34.2893 37.2713 34.1703 37.2713 34.0972 37.1983L33.3017 36.4028C33.2286 36.3297 33.2286 36.2107 33.3017 36.1376L34.2297 35.2096L35.2904 36.2702L34.3624 37.1983ZM38.0747 40.9106C38.0015 40.9836 37.8826 40.9836 37.8095 40.9106L37.014 40.1151C36.9409 40.042 36.9409 39.923 37.014 39.8499L37.9422 38.9219L39.0028 39.9826L38.0747 40.9106ZM41.3521 38.0892C41.5188 38.2559 41.5188 38.5271 41.3521 38.6938L40.5938 39.4521L31.0479 29.9062L31.8062 29.1479C31.9729 28.9812 32.2441 28.9812 32.4108 29.1479L41.3521 38.0892ZM40.0634 34.6792L35.8208 30.4366L43.2343 23.023L47.477 27.2657L40.0634 34.6792ZM50.249 36.0541L44.5031 32.3609L45.7092 31.1548L56.1328 34.8034C56.9505 35.0898 57.5 35.8644 57.5 36.7309V41.5H51.2089L51.6802 39.85C52.0959 38.3967 51.5207 36.8712 50.249 36.0541ZM45.5 43H59V51.25H56.75V49.75C56.75 47.2687 54.7313 45.25 52.25 45.25C49.7687 45.25 47.75 47.2687 47.75 49.75V51.25H45.5V43ZM55.25 49.75V51.25H49.25V49.75C49.25 48.0958 50.5958 46.75 52.25 46.75C53.9042 46.75 55.25 48.0958 55.25 49.75ZM22.25 46V44.5H34.25V46H22.25ZM24.5 48.25V47.5H32V48.25H24.5ZM29 49.75V51.25H27.5V49.75H29ZM29.2865 61H26V59.5H30.0365L29.2865 61ZM56 61H52.7135L51.9635 59.5H56V61ZM62 56.7462C62 57.4375 61.4375 58 60.7462 58H21.2538C20.5625 58 20 57.4375 20 56.7462V56.5H62V56.7462ZM62 55H20V54.7051C20 53.627 20.877 52.75 21.9551 52.75H60.045C61.1231 52.75 62.0001 53.627 62.0001 54.7051V55H62Z" fill="#032626"/>
<path d="M51.501 49.7657C51.501 50.1798 51.8372 50.5157 52.2514 50.5157C52.6657 50.5157 53.0014 50.1798 53.0014 49.7657C53.0014 49.3515 52.6656 49.0157 52.2514 49.0157H52.2505C51.8363 49.0157 51.501 49.3514 51.501 49.7657Z" fill="#032626"/>
</svg>
