<svg width="40" height="40" viewBox="0 0 40 40" fill="none" xmlns="http://www.w3.org/2000/svg">
<g clip-path="url(#clip0_23_25)">
<circle cx="20" cy="20" r="16" fill="white" fill-opacity="0.3"/>
<path d="M18.25 14.368C18.0219 14.2363 17.7631 14.167 17.4998 14.167C17.2364 14.1671 16.9776 14.2365 16.7496 14.3682C16.5215 14.5 16.3322 14.6895 16.2006 14.9177C16.069 15.1458 15.9998 15.4046 16 15.668V24.334C15.9998 24.5974 16.069 24.8562 16.2006 25.0843C16.3322 25.3125 16.5215 25.502 16.7496 25.6338C16.9776 25.7655 17.2364 25.8349 17.4998 25.835C17.7631 25.835 18.0219 25.7657 18.25 25.634L26.5 20.866C26.652 20.7782 26.7782 20.652 26.866 20.5C26.9538 20.348 27 20.1755 27 20C27 19.8245 26.9538 19.652 26.866 19.5C26.7782 19.348 26.652 19.2218 26.5 19.134L18.25 14.368ZM4 20C4 15.7565 5.68571 11.6869 8.68629 8.68629C11.6869 5.68571 15.7565 4 20 4C24.2435 4 28.3131 5.68571 31.3137 8.68629C34.3143 11.6869 36 15.7565 36 20C36 24.2435 34.3143 28.3131 31.3137 31.3137C28.3131 34.3143 24.2435 36 20 36C15.7565 36 11.6869 34.3143 8.68629 31.3137C5.68571 28.3131 4 24.2435 4 20ZM20 6C18.1615 6 16.341 6.36212 14.6424 7.06569C12.9439 7.76925 11.4005 8.80048 10.1005 10.1005C8.80048 11.4005 7.76925 12.9439 7.06569 14.6424C6.36212 16.341 6 18.1615 6 20C6 21.8385 6.36212 23.659 7.06569 25.3576C7.76925 27.0561 8.80048 28.5995 10.1005 29.8995C11.4005 31.1995 12.9439 32.2307 14.6424 32.9343C16.341 33.6379 18.1615 34 20 34C23.713 34 27.274 32.525 29.8995 29.8995C32.525 27.274 34 23.713 34 20C34 16.287 32.525 12.726 29.8995 10.1005C27.274 7.475 23.713 6 20 6Z" fill="white"/>
</g>
<defs>
<clipPath id="clip0_23_25">
<rect width="40" height="40" fill="white"/>
</clipPath>
</defs>
</svg>
