<svg width="81" height="80" viewBox="0 0 81 80" fill="none" xmlns="http://www.w3.org/2000/svg">
<rect x="0.368164" width="80.2676" height="80" rx="40" fill="white"/>
<path d="M59.0003 33.1901C58.8884 33.0234 58.7261 32.897 58.5371 32.8295C58.3481 32.762 58.1423 32.7569 57.9503 32.8151C57.6578 32.9051 50.6978 35.0651 48.8003 40.3151C47.2403 44.7476 49.7828 49.7501 50.7503 51.3776C48.4039 53.6884 45.246 54.9887 41.9528 55.0001C40.95 54.2357 40.0049 53.3984 39.1253 52.4951C40.5278 50.2451 46.0853 40.4051 43.0103 31.8476C39.5753 22.2926 26.8703 18.3776 26.3303 18.2501C26.1382 18.1919 25.9325 18.197 25.7435 18.2645C25.5545 18.332 25.3921 18.4584 25.2803 18.6251C24.9653 19.0601 17.6678 30.1751 21.0953 39.7151C24.1403 48.1826 34.4978 52.2176 37.1603 53.1326C39.6372 55.8695 42.6602 58.0571 46.0343 59.5542C49.4085 61.0514 53.0589 61.825 56.7503 61.8251C56.9989 61.8251 57.2374 61.7263 57.4132 61.5505C57.589 61.3747 57.6878 61.1362 57.6878 60.8876C57.6878 60.639 57.589 60.4005 57.4132 60.2247C57.2374 60.0489 56.9989 59.9501 56.7503 59.9501C52.4209 59.9541 48.1682 58.8074 44.4278 56.6276C47.5514 56.0792 50.408 54.519 52.5578 52.1876C54.1403 51.6326 59.6453 49.4126 61.2953 44.8151C63.2003 39.5351 59.2028 33.4526 59.0003 33.1901ZM22.8578 39.0776C20.1803 31.6151 25.0403 22.6226 26.4653 20.2376C29.0828 21.1676 38.5628 25.0001 41.2403 32.5001C43.8278 39.6926 39.4103 48.3026 37.8128 51.0551C34.1576 46.6557 32.1593 41.1147 32.1653 35.3951C32.1653 35.1465 32.0665 34.9079 31.8907 34.7322C31.7149 34.5564 31.4764 34.4576 31.2278 34.4576C30.9791 34.4576 30.7406 34.5564 30.5648 34.7322C30.389 34.9079 30.2903 35.1465 30.2903 35.3951C30.2753 40.6645 31.8431 45.8169 34.7903 50.1851C30.9278 48.3626 24.9128 44.7776 22.8578 39.0776ZM59.5403 44.1776C58.7153 46.4726 56.5928 48.1001 54.7478 49.1351C55.8567 47.0577 56.4388 44.7399 56.4428 42.3851C56.4428 42.1364 56.344 41.8979 56.1682 41.7221C55.9924 41.5464 55.7539 41.4476 55.5053 41.4476C55.2566 41.4476 55.0181 41.5464 54.8423 41.7221C54.6665 41.8979 54.5678 42.1364 54.5678 42.3851C54.5624 45.0896 53.6838 47.7201 52.0628 49.8851C51.0953 48.0776 49.4303 44.2151 50.5628 40.9751C51.8303 37.4576 56.1353 35.5076 57.8153 34.8626C58.7303 36.4151 60.8078 40.6601 59.5403 44.1776Z" fill="#032626"/>
</svg>
