<svg width="16" height="22" viewBox="0 0 16 22" fill="none" xmlns="http://www.w3.org/2000/svg">
<path d="M2.72818 1.31717L4.38847 0.816597C4.93642 0.651654 5.52566 0.691674 6.04627 0.929192C6.56689 1.16671 6.98332 1.58551 7.2179 2.10745L8.3819 4.69603C8.58392 5.1451 8.64023 5.64617 8.54292 6.12889C8.44561 6.61161 8.19956 7.05173 7.83932 7.38745L6.06761 9.03831C5.83018 9.26374 6.01018 10.1423 6.87761 11.6457C7.74589 13.15 8.41704 13.7449 8.72647 13.6523L11.0476 12.9426C11.5181 12.7987 12.0218 12.8056 12.4882 12.9624C12.9546 13.1192 13.3602 13.418 13.6482 13.8169L15.3025 16.1097C15.6366 16.5727 15.7913 17.1413 15.7379 17.7098C15.6844 18.2782 15.4265 18.808 15.0119 19.2006L13.733 20.4117C13.3202 20.8027 12.811 21.0772 12.2575 21.2071C11.704 21.3371 11.1259 21.3179 10.5822 21.1515C7.90275 20.3312 5.42132 17.8969 3.10447 13.8829C0.782465 9.86288 -0.0943912 6.47203 0.516752 3.70174C0.640013 3.14353 0.909914 2.62829 1.29863 2.20914C1.68735 1.78998 2.18082 1.48208 2.72818 1.31717Z" fill="white"/>
</svg>
