<svg width="81" height="80" viewBox="0 0 81 80" fill="none" xmlns="http://www.w3.org/2000/svg">
<rect x="0.368164" width="80.2676" height="80" rx="40" fill="white"/>
<path fill-rule="evenodd" clip-rule="evenodd" d="M57.408 57.1562C56.5642 57.1562 56.283 56.5938 56.283 56.0312C56.283 55.75 56.4705 55.4688 56.5642 55.2812C56.658 55.0938 56.7517 54.9062 56.7517 54.5312L56.8455 49.6562C56.658 48.8125 54.8767 42.25 51.2205 41.5C51.033 41.4063 48.9705 40.9375 48.1267 39.25C47.9392 38.875 48.1267 38.5 48.408 38.4063C48.783 38.2188 49.158 38.3125 49.3455 38.6875C49.908 39.8125 51.408 40.1875 51.408 40.1875C56.1892 41.125 58.0642 49.0938 58.158 49.375C58.158 49.4688 58.158 49.5625 58.158 49.5625V54.625C58.158 55.0938 57.9705 55.4688 57.783 55.75H59.0955L59.3767 49.0938C59.3767 49 59.3767 49 59.3767 48.9062C59.8455 46.6562 58.8142 44.4063 58.7205 44.125C57.2205 41.3125 58.2517 35.875 59.4705 31.75C59.9392 30.1563 59.7517 29.0313 59.0017 28.1875C57.1267 26.3125 51.5017 26.2188 43.8142 28C43.7205 28 43.7205 28 43.7205 28C34.2517 29.3125 27.5955 26.7813 27.3142 26.6875C27.2205 26.5938 27.2205 26.5938 27.1267 26.5938C26.9392 26.4063 26.7517 26.125 26.7517 25.8438C26.7517 25.375 27.033 24.7188 27.5017 24.25C26.1892 24.4375 25.8142 25.1875 25.8142 25.1875C25.6267 25.4688 25.2517 25.6563 24.9705 25.5625C24.5955 25.375 23.5642 25.8438 22.4392 26.7813C21.6892 27.5313 21.5017 28.0938 21.3142 28.8438C21.2205 29.5938 20.9392 30.3438 20.283 31.2813C19.6267 32.125 18.783 33.0625 18.408 33.4375C18.5017 33.625 18.8767 34 19.2517 34.1875C19.8142 34.2813 21.2205 34.1875 21.9705 34.0938C22.0642 34.0938 22.158 34.0938 22.2517 34.0938C25.4392 35.125 28.158 34.0938 28.158 34.0938C28.4392 34 28.908 34.0938 29.0017 34.4688C29.0955 34.8438 29.0017 35.2188 28.6267 35.4063C28.533 35.4063 25.533 36.5313 21.9705 35.5C21.408 35.5938 19.8142 35.7813 18.783 35.4063C18.783 35.4063 18.783 35.4063 18.6892 35.4063C18.5017 35.3125 16.6267 34.375 17.0955 32.9688C17.0955 32.875 17.1892 32.7813 17.283 32.6875C17.283 32.6875 18.408 31.4688 19.158 30.5313C19.7205 29.7813 19.8142 29.125 20.0017 28.5625C20.1892 27.7188 20.3767 26.7813 21.5017 25.8438C21.9705 25.375 23.4705 24.1563 24.8767 24.1563C25.3455 23.5 26.5642 22.5625 29.0955 22.9375C29.283 22.9375 29.5642 23.125 29.5642 23.4063C29.658 23.5938 29.5642 23.875 29.4705 24.0625C28.908 24.625 28.4392 25.2813 28.2517 25.6563C29.8455 26.125 35.7517 27.8125 43.6267 26.7813C48.5017 25.6563 57.033 24.1563 60.033 27.25C61.158 28.4688 61.4392 30.0625 60.783 32.125C59.1892 37.6563 58.908 41.6875 60.033 43.4688C60.1267 43.6563 61.4392 46.2812 60.783 49.1875L60.5955 56.5C60.5955 56.875 60.2205 57.1562 59.9392 57.1562H57.783C57.6892 57.1562 57.6892 57.1562 57.6892 57.1562C57.5017 57.1562 57.5017 57.1562 57.408 57.1562Z" fill="#032626"/>
<path fill-rule="evenodd" clip-rule="evenodd" d="M42.9693 44.5C42.4068 44.5 41.8443 44.5 41.2818 44.4062C40.9068 44.4062 40.6256 44.0312 40.7193 43.75C40.7193 43.2812 41.0943 43.0937 41.4693 43.0937C47.0006 43.75 51.7818 40.6562 51.8756 40.6562C52.1568 40.4687 52.5318 40.4687 52.8131 40.8437C53.0006 41.125 52.9068 41.5937 52.5318 41.7812C52.4381 41.875 48.3131 44.5 42.9693 44.5Z" fill="#032626"/>
<path fill-rule="evenodd" clip-rule="evenodd" d="M51.0311 45.3437C48.4061 45.3437 46.9061 43.8437 46.8124 43.75C46.5311 43.4687 46.6249 43 46.9061 42.7187C47.1874 42.4375 47.5624 42.5312 47.8436 42.8125C47.9374 42.9062 50.2811 45.25 54.5936 43C54.9686 42.8125 55.3436 42.9062 55.5311 43.2812C55.7186 43.5625 55.6249 43.9375 55.2499 44.2187C53.6561 45.0625 52.2499 45.3437 51.0311 45.3437Z" fill="#032626"/>
<path fill-rule="evenodd" clip-rule="evenodd" d="M54.2195 57.1562H52.0633C51.9695 57.1562 51.8758 57.0625 51.6883 56.9687C50.7508 56.4062 51.1258 55.4687 51.407 54.9062C51.5945 54.625 51.782 54.25 51.782 53.7812L51.6883 50.0312C51.407 47.6875 48.8758 44.875 48.8758 44.875C48.6883 44.5937 48.6883 44.2187 48.9695 43.9375C49.2508 43.6562 49.6258 43.6562 49.907 43.9375C50.0008 44.0312 52.7195 47.125 53.0008 49.8437V49.9375L53.0945 53.7812C53.0945 54.5312 52.8133 55.0937 52.6258 55.5625C52.6258 55.5625 52.6258 55.6562 52.532 55.75H53.657L54.032 49.6562C54.2195 48.625 54.407 45.625 53.4695 44.4062C53.282 44.125 53.3758 43.6562 53.657 43.4687C53.9383 43.2812 54.407 43.2812 54.5945 43.6562C55.907 45.5312 55.4383 49.2812 55.3445 49.8437L54.8758 56.5C54.8758 56.875 54.5945 57.1562 54.2195 57.1562Z" fill="#032626"/>
<path fill-rule="evenodd" clip-rule="evenodd" d="M38.0947 57.1562C37.3447 57.1562 37.1572 56.6875 37.0635 56.2188C36.9697 55.5625 37.4385 55.2812 37.626 55.0938C37.8135 55 37.9072 54.9062 37.9072 54.3438V52C37.7197 51.25 36.126 45.0625 36.126 40.9375C36.126 40.5625 36.501 40.2812 36.876 40.2812C37.251 40.2812 37.5322 40.5625 37.5322 40.9375C37.5322 45.0625 39.2197 51.625 39.2197 51.7188C39.2197 51.8125 39.3135 51.9062 39.3135 51.9062V54.3438C39.3135 55 39.2197 55.375 38.9385 55.6562H39.6885C39.6885 50.125 41.001 41.9688 41.001 41.5938C41.0947 41.2188 41.4697 40.9375 41.8447 40.9375C42.2197 41.0312 42.4072 41.4062 42.4072 41.7812C42.4072 41.875 41.001 50.875 41.0947 56.3125C41.0947 56.5 41.001 56.6875 40.9072 56.7812C40.7197 56.9688 40.5322 56.9688 40.3447 56.9688H38.376H38.2822C38.1885 57.1562 38.1885 57.1562 38.0947 57.1562Z" fill="#032626"/>
<path fill-rule="evenodd" clip-rule="evenodd" d="M36.9694 44.875C36.8756 44.875 33.8756 44.6875 31.5319 42.1562C30.6881 41.3125 30.4069 40.375 30.1256 39.5312C29.6569 38.2188 29.1881 37 26.5631 35.5938C26.1881 35.5 26.0944 35.0312 26.1881 34.75C26.3756 34.375 26.7506 34.2812 27.1256 34.4688C30.3131 35.9688 30.8756 37.6562 31.4381 39.1562C31.6256 39.9062 31.9069 40.5625 32.4694 41.2188C34.4381 43.2812 37.0631 43.4688 37.0631 43.4688C37.4381 43.4688 37.7194 43.8438 37.7194 44.2188C37.7194 44.5938 37.4381 44.875 36.9694 44.875Z" fill="#032626"/>
<path fill-rule="evenodd" clip-rule="evenodd" d="M35.8443 57.1562H33.8756C33.6881 57.1562 33.5006 57.0625 33.4068 56.9688C32.7506 56.2188 33.0318 55.5625 33.2193 55.2812C33.3131 55 33.4068 54.9062 33.4068 54.5312V54.0625C33.4068 52.8438 33.3131 51.9062 33.0318 50.5938C32.3756 48.1562 31.9068 42.5312 31.9068 42.25C31.8131 41.875 32.0943 41.5938 32.4693 41.5C32.8443 41.5 33.2193 41.7812 33.2193 42.1562C33.2193 42.1562 33.6881 47.875 34.2506 50.2188C34.7193 51.625 34.7193 52.75 34.7193 53.9688V54.4375C34.7193 55.0938 34.6256 55.4688 34.4381 55.75H35.1881L35.2818 50.6875C35.4693 49.2812 35.9381 45.4375 35.6568 44.2188C35.4693 43.8438 35.7506 43.4688 36.1256 43.375C36.4068 43.2812 36.7818 43.4688 36.8756 43.8438C37.3443 45.625 36.6881 50.125 36.5943 50.7812L36.4068 56.4062C36.5006 56.7812 36.2193 57.1562 35.8443 57.1562Z" fill="#032626"/>
<path fill-rule="evenodd" clip-rule="evenodd" d="M63.0327 47.0312C62.9389 47.0312 62.9389 47.0312 62.8452 47.0312C62.4702 47.0312 62.2827 46.6562 62.2827 46.2812C62.4702 45.1562 61.8139 43.5625 61.8139 43.5625C60.9702 41.125 61.6264 37.8438 62.1889 36.1563C62.8452 33.7188 62.9389 32.2188 62.3764 31.1875C61.9077 30.5313 61.2514 30.0625 60.1264 29.7813C59.7514 29.7813 59.5639 29.4063 59.6577 29.0313C59.7514 28.6563 60.1264 28.375 60.5014 28.4688C61.9077 28.8438 62.9389 29.5 63.5014 30.5313C64.5327 32.3125 63.9702 34.8438 63.5014 36.5312C63.1264 37.75 62.3764 40.9375 63.1264 43.0938C63.2202 43.2812 63.8764 45.0625 63.6889 46.4688C63.5952 46.75 63.3139 47.0312 63.0327 47.0312Z" fill="#032626"/>
<path fill-rule="evenodd" clip-rule="evenodd" d="M63.126 52.2812C63.0323 52.2812 63.0323 52.2812 62.8448 52.1875C62.5635 52.0938 62.376 51.8125 62.4698 51.4375C62.5635 50.7812 62.376 50.6875 62.0948 50.3125C61.8135 50.0312 61.4385 49.5625 61.251 48.8125C60.9698 46.6562 62.5635 45.8125 62.6573 45.7188C62.8448 45.625 63.0323 45.625 63.2198 45.7188C64.0635 46.0938 64.626 46.75 64.9073 47.5C65.376 49.4688 63.876 51.7188 63.6885 52C63.5948 52.0938 63.3135 52.2812 63.126 52.2812ZM63.0323 47.125C62.8448 47.4062 62.5635 47.875 62.6573 48.625C62.751 49 62.8448 49.0938 63.126 49.375C63.2198 49.4688 63.3135 49.5625 63.3135 49.6562C63.5948 49.0938 63.6885 48.4375 63.501 47.875C63.501 47.5938 63.3135 47.3125 63.0323 47.125Z" fill="#032626"/>
<path fill-rule="evenodd" clip-rule="evenodd" d="M62.376 57.1562H30.126C29.751 57.1562 29.4697 56.7812 29.4697 56.4062C29.4697 56.0312 29.751 55.75 30.126 55.75H62.376C62.751 55.75 63.0322 56.0312 63.0322 56.4062C63.0322 56.7812 62.751 57.1562 62.376 57.1562Z" fill="#032626"/>
<path fill-rule="evenodd" clip-rule="evenodd" d="M24.7822 28.0938C25.1572 28.0938 25.4385 28.375 25.4385 28.75C25.4385 29.125 25.1572 29.4062 24.7822 29.4062C24.4072 29.4062 24.126 29.125 24.126 28.75C24.126 28.375 24.4072 28.0938 24.7822 28.0938Z" fill="#032626"/>
</svg>
