<svg width="16" height="11" viewBox="0 0 16 11" fill="none" xmlns="http://www.w3.org/2000/svg">
<path d="M15.6207 3.29602L9.28383 9.63288C9.14607 9.77064 8.99683 9.86799 8.83612 9.92493C8.6754 9.98279 8.5032 10.0117 8.31953 10.0117C8.13585 10.0117 7.96365 9.98279 7.80293 9.92493C7.64222 9.86799 7.49298 9.77064 7.35522 9.63288L1.01836 3.29603C0.765804 3.04347 0.639526 2.72203 0.639526 2.33172C0.639526 1.94141 0.765803 1.61997 1.01836 1.36742C1.27092 1.11486 1.59235 0.988582 1.98266 0.988582C2.37298 0.988582 2.69441 1.11486 2.94697 1.36742L8.31953 6.73997L13.6921 1.36742C13.9446 1.11486 14.2661 0.988581 14.6564 0.988581C15.0467 0.988581 15.3681 1.11486 15.6207 1.36742C15.8732 1.61997 15.9995 1.94141 15.9995 2.33172C15.9995 2.72203 15.8732 3.04347 15.6207 3.29602Z" fill="#DA001D"/>
</svg>
