<svg width="24" height="24" viewBox="0 0 24 24" fill="none" xmlns="http://www.w3.org/2000/svg">
<path fill-rule="evenodd" clip-rule="evenodd" d="M4.26941 3C3.42157 3 2.95841 3.98886 3.50119 4.64018L10.304 12.8035C10.7533 13.3427 10.9994 14.0223 10.9994 14.7241V19C10.9994 19.3148 11.1475 19.6111 11.3994 19.8L12.9994 21V14.7241C12.9994 14.0223 13.2454 13.3427 13.6947 12.8035L20.4975 4.64018C21.0403 3.98886 20.5771 3 19.7293 3H4.26941ZM1.96474 5.92055C0.336424 3.96657 1.7259 1 4.26941 1H19.7293C22.2728 1 23.6623 3.96657 22.0339 5.92055L15.2311 14.0839C15.0814 14.2636 14.9994 14.4902 14.9994 14.7241V21C14.9994 22.6481 13.1178 23.5889 11.7994 22.6L10.1994 21.4C9.44391 20.8334 8.99932 19.9443 8.99932 19V14.7241C8.99932 14.4902 8.91731 14.2636 8.76755 14.0839L1.96474 5.92055Z" fill="#EAEAEA"/>
</svg>
