<svg width="20" height="21" viewBox="0 0 20 21" fill="none" xmlns="http://www.w3.org/2000/svg">
<path d="M9.99908 6.64752C8.97712 6.64752 7.99701 7.0535 7.27437 7.77614C6.55173 8.49878 6.14575 9.47889 6.14575 10.5009C6.14575 11.5228 6.55173 12.5029 7.27437 13.2256C7.99701 13.9482 8.97712 14.3542 9.99908 14.3542C11.0211 14.3542 12.0012 13.9482 12.7238 13.2256C13.4464 12.5029 13.8524 11.5228 13.8524 10.5009C13.8524 9.47889 13.4464 8.49878 12.7238 7.77614C12.0012 7.0535 11.0211 6.64752 9.99908 6.64752ZM9.99908 13.0034C9.33516 13.0034 8.69843 12.7396 8.22896 12.2701C7.7595 11.8007 7.49575 11.1639 7.49575 10.5C7.49575 9.8361 7.7595 9.19936 8.22896 8.7299C8.69843 8.26043 9.33516 7.99669 9.99908 7.99669C10.663 7.99669 11.2997 8.26043 11.7692 8.7299C12.2387 9.19936 12.5024 9.8361 12.5024 10.5C12.5024 11.1639 12.2387 11.8007 11.7692 12.2701C11.2997 12.7396 10.663 13.0034 9.99908 13.0034Z" fill="#969696"/>
<path d="M14.0038 7.40409C14.4999 7.40409 14.9021 7.00189 14.9021 6.50575C14.9021 6.00962 14.4999 5.60742 14.0038 5.60742C13.5077 5.60742 13.1055 6.00962 13.1055 6.50575C13.1055 7.00189 13.5077 7.40409 14.0038 7.40409Z" fill="#969696"/>
<path d="M17.1123 5.59242C16.9194 5.09424 16.6246 4.64182 16.2468 4.26414C15.869 3.88645 15.4164 3.59182 14.9182 3.39909C14.3351 3.18022 13.7192 3.06187 13.0965 3.04909C12.294 3.01409 12.0398 3.00409 10.0048 3.00409C7.96984 3.00409 7.70901 3.00409 6.91317 3.04909C6.291 3.06122 5.67547 3.17959 5.09317 3.39909C4.59479 3.59159 4.14214 3.88615 3.76429 4.26386C3.38643 4.64158 3.0917 5.09411 2.89901 5.59242C2.68009 6.17543 2.56202 6.79145 2.54984 7.41409C2.51401 8.21576 2.50317 8.46992 2.50317 10.5058C2.50317 12.5408 2.50317 12.7999 2.54984 13.5974C2.56234 14.2208 2.67984 14.8358 2.89901 15.4199C3.09224 15.9181 3.38725 16.3704 3.7652 16.7481C4.14315 17.1257 4.59573 17.4204 5.09401 17.6133C5.6752 17.8409 6.29098 17.9677 6.91484 17.9883C7.71734 18.0233 7.97151 18.0341 10.0065 18.0341C12.0415 18.0341 12.3023 18.0341 13.0982 17.9883C13.7208 17.9756 14.3367 17.8575 14.9198 17.6391C15.418 17.4459 15.8704 17.151 16.2481 16.7732C16.6259 16.3954 16.9208 15.9431 17.114 15.4449C17.3332 14.8616 17.4507 14.2466 17.4632 13.6233C17.499 12.8216 17.5098 12.5674 17.5098 10.5316C17.5098 8.49576 17.5098 8.23742 17.4632 7.43992C17.4535 6.80848 17.3348 6.18346 17.1123 5.59242ZM16.0973 13.5358C16.092 14.016 16.0043 14.4918 15.8382 14.9424C15.713 15.2665 15.5214 15.5608 15.2757 15.8063C15.03 16.0519 14.7356 16.2433 14.4115 16.3683C13.9659 16.5336 13.4951 16.6213 13.0198 16.6274C12.2282 16.6641 12.0048 16.6733 9.97484 16.6733C7.94317 16.6733 7.73567 16.6733 6.92901 16.6274C6.45395 16.6216 5.98344 16.5339 5.53817 16.3683C5.21291 16.2441 4.91734 16.053 4.67058 15.8074C4.42382 15.5618 4.23137 15.2671 4.10567 14.9424C3.94188 14.4966 3.85427 14.0265 3.84651 13.5516C3.81067 12.7599 3.80234 12.5366 3.80234 10.5066C3.80234 8.47576 3.80234 8.26826 3.84651 7.46076C3.85189 6.98077 3.93955 6.50527 4.10567 6.05492C4.35984 5.39742 4.88067 4.87992 5.53817 4.62826C5.98366 4.46337 6.45403 4.37573 6.92901 4.36909C7.72151 4.33326 7.94401 4.32326 9.97484 4.32326C12.0057 4.32326 12.214 4.32326 13.0198 4.36909C13.4952 4.37481 13.966 4.46248 14.4115 4.62826C14.7356 4.75348 15.03 4.94509 15.2756 5.19078C15.5213 5.43647 15.7129 5.73082 15.8382 6.05492C16.002 6.50071 16.0896 6.97089 16.0973 7.44576C16.1332 8.23826 16.1423 8.46076 16.1423 10.4916C16.1423 12.5216 16.1423 12.7399 16.1065 13.5366H16.0973V13.5358Z" fill="#969696"/>
</svg>
