<svg width="20" height="21" viewBox="0 0 20 21" fill="none" xmlns="http://www.w3.org/2000/svg">
<path fill-rule="evenodd" clip-rule="evenodd" d="M7.85758 7.97419H10.9526V9.51585C11.3984 8.62919 12.5417 7.83252 14.2592 7.83252C17.5517 7.83252 18.3334 9.59752 18.3334 12.8359V18.8334H15.0001V13.5734C15.0001 11.7292 14.5542 10.6892 13.4192 10.6892C11.8451 10.6892 11.1909 11.81 11.1909 13.5725V18.8334H7.85758V7.97419ZM2.14175 18.6917H5.47508V7.83252H2.14175V18.6917ZM5.95258 4.29169C5.9527 4.57108 5.89729 4.84772 5.78957 5.10551C5.68185 5.3633 5.52396 5.59711 5.32508 5.79335C4.92208 6.19387 4.37659 6.41806 3.80841 6.41669C3.24124 6.41631 2.69701 6.19269 2.29341 5.79419C2.09526 5.59728 1.9379 5.36321 1.83037 5.10538C1.72283 4.84755 1.66723 4.57104 1.66675 4.29169C1.66675 3.72752 1.89175 3.18752 2.29425 2.78919C2.69749 2.39015 3.24195 2.16644 3.80925 2.16669C4.37758 2.16669 4.92258 2.39085 5.32508 2.78919C5.72675 3.18752 5.95258 3.72752 5.95258 4.29169Z" fill="#969696"/>
</svg>
