<svg id="Layer_1" xmlns="http://www.w3.org/2000/svg" viewBox="0 0 269.36 23.25"><defs><style>.cls-1{fill:#da001d}</style></defs><path d="M6.64 22.84 0 .34h6.81l3.08 13.85h.18L13.71.34h5.36l3.65 13.89h.18L25.98.34h6.81l-6.64 22.5H20.3l-3.82-12.57h-.18l-3.82 12.57H6.63h.01zm28.13 0V.34h16.22v4.92H40.88v3.87h9.27v4.92h-9.27v3.87h10.07v4.92H34.77zm19.25 0V.34h6.11v17.58h9.1v4.92H54.02zM91.83 8.77h-6.2c-.04-.51-.16-.98-.35-1.4-.18-.42-.44-.78-.77-1.08-.32-.31-.71-.54-1.18-.7-.46-.17-.99-.25-1.57-.25-1.03 0-1.89.25-2.6.75-.7.5-1.24 1.21-1.6 2.14-.36.93-.54 2.05-.54 3.35 0 1.38.18 2.53.55 3.46.37.92.91 1.62 1.62 2.09.7.46 1.55.69 2.54.69.56 0 1.07-.07 1.52-.21.45-.15.84-.36 1.16-.63.33-.27.6-.6.8-.98.21-.39.36-.82.43-1.31l6.2.04c-.07.95-.34 1.92-.8 2.91-.46.98-1.12 1.89-1.97 2.73-.84.83-1.89 1.49-3.13 2-1.25.51-2.69.76-4.34.76-2.07 0-3.92-.44-5.56-1.33-1.63-.89-2.93-2.19-3.88-3.91-.94-1.72-1.42-3.83-1.42-6.32s.48-4.62 1.45-6.33c.97-1.72 2.27-3.02 3.91-3.9C77.74.45 79.57.01 81.59.01c1.42 0 2.73.19 3.92.58 1.19.39 2.24.96 3.14 1.7.91.75 1.65 1.68 2.18 2.74.55 1.08.88 2.33 1 3.73Zm23.11-3.52c-.97-1.72-2.28-3.02-3.94-3.9-1.66-.89-3.49-1.33-5.54-1.33s-3.91.44-5.56 1.33c-1.64.88-2.96 2.18-3.93 3.9-.97 1.71-1.45 3.84-1.45 6.33s.48 4.6 1.45 6.32c.97 1.71 2.28 3.02 3.93 3.91 1.66.89 3.52 1.33 5.56 1.33s3.88-.44 5.54-1.32c1.65-.89 2.96-2.19 3.94-3.9.97-1.72 1.46-3.83 1.46-6.34s-.49-4.62-1.46-6.33ZM109.57 15c-.35.92-.87 1.63-1.57 2.11-.69.47-1.54.71-2.55.71s-1.86-.23-2.56-.71c-.69-.48-1.21-1.19-1.57-2.11-.35-.93-.53-2.07-.53-3.42s.18-2.49.53-3.41c.36-.93.88-1.63 1.57-2.11.7-.49 1.55-.73 2.56-.73s1.86.25 2.55.73 1.22 1.18 1.57 2.11c.36.93.54 2.06.54 3.41s-.18 2.49-.54 3.42ZM119.23.34h7.6l5.23 12.75h.26L137.55.34h7.6v22.5h-5.98V9.83h-.18l-5.01 12.83h-3.6l-5.01-12.92h-.18v13.1h-5.98V.34h.02zm28.83 22.5V.34h16.22v4.92h-10.11v3.87h9.27v4.92h-9.27v3.87h10.07v4.92h-16.18z" style="fill:#17247e"/><path class="cls-1" d="M186.69 7.37h-2.72c-.16-.78-.44-1.47-.85-2.07-.4-.59-.88-1.09-1.45-1.49-.56-.41-1.19-.72-1.88-.92-.69-.21-1.41-.31-2.15-.31-1.36 0-2.6.34-3.7 1.03s-1.97 1.7-2.63 3.04c-.64 1.34-.97 2.99-.97 4.93s.32 3.59.97 4.93 1.53 2.36 2.63 3.04c1.11.69 2.34 1.03 3.7 1.03.75 0 1.46-.1 2.15-.31.67-.2 1.31-.51 1.88-.91.57-.41 1.05-.91 1.45-1.51s.68-1.29.85-2.07h2.72c-.21 1.15-.58 2.18-1.12 3.09s-1.22 1.68-2.02 2.32c-.81.63-1.71 1.11-2.71 1.44s-2.06.49-3.2.49c-1.92 0-3.63-.47-5.12-1.41-1.5-.94-2.67-2.27-3.53-4s-1.29-3.78-1.29-6.15.43-4.42 1.29-6.15 2.03-3.06 3.53-4c1.49-.94 3.2-1.41 5.12-1.41 1.14 0 2.2.16 3.2.49 1 .33 1.91.81 2.71 1.45.81.63 1.48 1.4 2.02 2.31.54.9.92 1.93 1.12 3.09v.03Zm22.1-1.93c-.86-1.73-2.04-3.06-3.53-4-1.49-.94-3.2-1.41-5.12-1.41s-3.63.47-5.12 1.41c-1.5.94-2.67 2.27-3.53 4-.86 1.73-1.29 3.78-1.29 6.15s.43 4.42 1.29 6.15c.86 1.73 2.04 3.06 3.53 4s3.2 1.41 5.12 1.41 3.63-.47 5.12-1.41c1.5-.94 2.67-2.27 3.53-4 .86-1.73 1.29-3.78 1.29-6.15s-.43-4.42-1.29-6.15Zm-2.33 11.08c-.65 1.34-1.52 2.35-2.63 3.04-1.1.69-2.33 1.03-3.69 1.03s-2.59-.34-3.7-1.03c-1.1-.68-1.98-1.7-2.63-3.04-.65-1.34-.97-2.99-.97-4.93s.33-3.59.97-4.93c.65-1.34 1.53-2.35 2.63-3.04 1.1-.69 2.34-1.03 3.7-1.03s2.59.34 3.69 1.03c1.11.68 1.99 1.7 2.63 3.04.65 1.34.98 2.98.98 4.93s-.33 3.59-.98 4.93Zm8.2 6.32V.34h7.6c1.76 0 3.2.3 4.33.9 1.13.59 1.96 1.41 2.51 2.45.54 1.04.81 2.22.81 3.55s-.27 2.5-.81 3.53-1.37 1.83-2.49 2.42c-1.12.58-2.55.87-4.3.87h-6.15V11.6h6.07c1.2 0 2.17-.18 2.9-.53.74-.35 1.27-.85 1.6-1.49.34-.65.51-1.43.51-2.33s-.17-1.69-.51-2.36c-.34-.67-.88-1.19-1.62-1.56-.74-.37-1.72-.56-2.93-.56h-4.79v20.09h-2.73v-.02Z"/><path class="cls-1" d="m225.25 12.73 5.54 10.11h-3.16l-5.45-10.11h3.08-.01zm9.2 10.11V.34h7.6c1.77 0 3.21.32 4.33.96 1.13.63 1.96 1.48 2.5 2.56s.81 2.28.81 3.6-.27 2.53-.81 3.62c-.54 1.08-1.36 1.95-2.48 2.59s-2.56.96-4.31.96h-5.45v-2.42H242c1.21 0 2.18-.21 2.91-.63.73-.42 1.26-.98 1.59-1.69.34-.72.51-1.53.51-2.43s-.17-1.71-.51-2.42c-.33-.71-.86-1.27-1.6-1.67-.74-.41-1.72-.62-2.95-.62h-4.79v20.09h-2.72ZM266.4 5.96c-.13-1.11-.67-1.98-1.6-2.59s-2.09-.92-3.45-.92c-1 0-1.87.16-2.62.48-.74.32-1.32.77-1.74 1.33-.41.56-.61 1.21-.61 1.92 0 .6.14 1.12.43 1.55.29.42.67.78 1.12 1.07.45.28.93.51 1.43.69.5.18.96.32 1.37.43l2.29.62c.59.15 1.24.37 1.96.64.73.27 1.42.64 2.08 1.11.67.46 1.22 1.05 1.65 1.78s.65 1.62.65 2.67c0 1.22-.32 2.31-.96 3.3-.63.98-1.55 1.76-2.77 2.34-1.21.58-2.68.87-4.41.87-1.61 0-3.01-.26-4.19-.78-1.17-.52-2.09-1.25-2.77-2.18-.67-.93-1.04-2.01-1.13-3.24h2.81c.07.85.36 1.55.86 2.11.51.55 1.14.96 1.91 1.23.78.26 1.61.4 2.51.4 1.04 0 1.97-.17 2.8-.51s1.48-.82 1.97-1.43c.48-.62.72-1.33.72-2.15 0-.75-.21-1.36-.63-1.82-.42-.47-.97-.85-1.65-1.14s-1.42-.55-2.21-.77l-2.77-.79c-1.76-.51-3.15-1.23-4.18-2.16-1.03-.94-1.54-2.16-1.54-3.68 0-1.26.34-2.36 1.02-3.3.69-.95 1.61-1.68 2.77-2.2 1.16-.53 2.46-.79 3.9-.79s2.74.26 3.87.78c1.13.51 2.02 1.22 2.68 2.11.67.89 1.02 1.91 1.05 3.04h-2.64l.02-.02Z"/></svg>