<svg width="110" height="96" viewBox="0 0 110 96" fill="none" xmlns="http://www.w3.org/2000/svg">
<path d="M3 19.7415C3 11.8495 3 7.90346 5.45173 5.45173C7.90346 3 11.8495 3 19.7415 3H67.1443C69.4221 3 70.561 3 71.0037 3.74246C71.4464 4.48491 70.9051 5.4869 69.8223 7.49088L64.8737 16.6495C64.3344 17.6476 64.0647 18.1466 64.15 18.6607C64.2353 19.1748 64.6516 19.56 65.4843 20.3305L68.9428 23.531C70.4403 24.9168 71.1891 25.6097 71.0664 26.4087C70.9437 27.2077 70.0215 27.644 68.1772 28.5166L50.6402 36.8137C49.6837 37.2662 49.2055 37.4924 48.9681 37.9222C48.7306 38.352 48.7937 38.8773 48.9197 39.9278L50.6716 54.5266C50.8016 55.61 50.8666 56.1517 50.6159 56.5891C50.3653 57.0265 49.8651 57.2443 48.8647 57.68L37.6163 62.5785C36.4706 63.0774 35.8977 63.3269 35.6524 63.8355C35.407 64.3442 35.5683 64.9478 35.891 66.1551L43.078 93.0488H19.7415C11.8495 93.0488 7.90346 93.0488 5.45173 90.597C3 88.1453 3 84.1993 3 76.3073V19.7415Z" stroke="#CDCDCD" stroke-width="4.56585" stroke-linejoin="round"/>
<path d="M107 76.3054C107 84.1974 107 88.1434 104.548 90.5951C102.097 93.0469 98.1505 93.0469 90.2585 93.0469H54.1122L46.8104 71.2538C46.3653 69.9254 46.1428 69.2612 46.4114 68.7037C46.68 68.1462 47.3382 67.9064 48.6546 67.4268L59.9326 63.3178C61.0336 62.9167 61.584 62.7161 61.8615 62.2582C62.139 61.8003 62.0621 61.2195 61.9081 60.0579L59.7703 43.927C59.6118 42.7313 59.5326 42.1334 59.824 41.6687C60.1153 41.204 60.688 41.0149 61.8333 40.6367L82.5498 33.7954C84.4392 33.1715 85.384 32.8595 85.6103 32.0969C85.8367 31.3342 85.2152 30.5573 83.9722 29.0036L75.5331 18.4548C75.0426 17.8416 74.7974 17.535 74.7263 17.1655C74.6552 16.7961 74.7693 16.4204 74.9974 15.669L78.1883 5.1578C78.5042 4.11722 78.6621 3.59693 79.0659 3.29751C79.4697 2.9981 80.0135 2.9981 81.1009 2.9981H90.2585C98.1505 2.9981 102.097 2.9981 104.548 5.44983C107 7.90156 107 11.8476 107 19.7396V76.3054Z" stroke="#CDCDCD" stroke-width="4.56585" stroke-linejoin="round"/>
<path d="M13 23L23 13M23 23L13 13" stroke="#CDCDCD" stroke-width="2.5641" stroke-linecap="round" stroke-linejoin="round"/>
<path d="M87 83L97 73M97 83L87 73" stroke="#CDCDCD" stroke-width="2.5641" stroke-linecap="round" stroke-linejoin="round"/>
</svg>
