<svg width="17" height="17" viewBox="0 0 17 17" fill="none" xmlns="http://www.w3.org/2000/svg">
<path d="M0.541736 0.656632L0.624925 0.562425C0.985409 0.201941 1.55264 0.174211 1.94493 0.479236L2.03914 0.562425L8.33203 6.85453L14.6249 0.562425C15.0154 0.1719 15.6486 0.1719 16.0391 0.562425C16.4297 0.952949 16.4297 1.58611 16.0391 1.97664L9.74703 8.26953L16.0391 14.5624C16.3996 14.9229 16.4274 15.4901 16.1223 15.8824L16.0391 15.9766C15.6787 16.3371 15.1114 16.3649 14.7191 16.0598L14.6249 15.9766L8.33203 9.68453L2.03914 15.9766C1.64861 16.3672 1.01545 16.3672 0.624925 15.9766C0.2344 15.5861 0.2344 14.9529 0.624925 14.5624L6.91703 8.26953L0.624925 1.97664C0.264441 1.61615 0.236711 1.04892 0.541736 0.656632L0.624925 0.562425L0.541736 0.656632Z" fill="#143A5A"/>
</svg>
