<svg width="18" height="18" viewBox="0 0 18 18" fill="none" xmlns="http://www.w3.org/2000/svg">
<path d="M12.9997 11.5005H12.2097L11.9297 11.2305C12.5547 10.5044 13.0114 9.64924 13.2673 8.72608C13.5231 7.80292 13.5718 6.83462 13.4097 5.89046C12.9397 3.11046 10.6197 0.890463 7.81973 0.550463C6.83535 0.425929 5.83552 0.528235 4.89676 0.849552C3.95799 1.17087 3.10518 1.70268 2.40356 2.40429C1.70195 3.10591 1.17014 3.95872 0.84882 4.89749C0.527502 5.83625 0.425196 6.83608 0.549731 7.82046C0.889731 10.6205 3.10973 12.9405 5.88973 13.4105C6.83388 13.5725 7.80219 13.5239 8.72534 13.268C9.6485 13.0122 10.5037 12.5554 11.2297 11.9305L11.4997 12.2105V13.0005L15.7497 17.2505C16.1597 17.6605 16.8297 17.6605 17.2397 17.2505C17.6497 16.8405 17.6497 16.1705 17.2397 15.7605L12.9997 11.5005ZM6.99973 11.5005C4.50973 11.5005 2.49973 9.49046 2.49973 7.00046C2.49973 4.51046 4.50973 2.50046 6.99973 2.50046C9.48973 2.50046 11.4997 4.51046 11.4997 7.00046C11.4997 9.49046 9.48973 11.5005 6.99973 11.5005Z" fill="#9EA3C9"/>
</svg>
