<svg width="20" height="21" viewBox="0 0 20 21" fill="none" xmlns="http://www.w3.org/2000/svg">
<path d="M18.3334 4.67702C17.7093 4.9662 17.0473 5.15601 16.3695 5.24015C17.0755 4.79754 17.6177 4.09665 17.8729 3.26155C17.2017 3.67814 16.4674 3.97165 15.7016 4.12941C15.0779 3.43437 14.1893 3 13.2057 3C11.3173 3 9.78628 4.6013 9.78628 6.57629C9.78628 6.85664 9.81655 7.12956 9.87482 7.39138C7.03302 7.24218 4.51349 5.81841 2.82697 3.65465C2.5327 4.18286 2.36408 4.79727 2.36408 5.45261C2.36408 6.69341 2.96779 7.78802 3.88524 8.4294C3.34224 8.41161 2.81118 8.25822 2.33641 7.98202C2.33621 7.997 2.33621 8.01199 2.33621 8.02703C2.33621 9.75982 3.51486 11.2053 5.07905 11.5339C4.57553 11.6771 4.04737 11.6981 3.53491 11.5952C3.97 13.016 5.23283 14.0499 6.72905 14.0789C5.55881 15.0381 4.08439 15.6098 2.48244 15.6098C2.2064 15.6098 1.93426 15.5929 1.66675 15.5599C3.17996 16.5746 4.97729 17.1667 6.90828 17.1667C13.1978 17.1667 16.6371 11.717 16.6371 6.99105C16.6371 6.83593 16.6338 6.6817 16.6272 6.52835C17.2966 6.0222 17.8744 5.39528 18.3334 4.67702Z" fill="#969696"/>
</svg>
