<svg width="20" height="21" viewBox="0 0 20 21" fill="none" xmlns="http://www.w3.org/2000/svg">
<g clip-path="url(#clip0_45_1085)">
<g clip-path="url(#clip1_45_1085)">
<path d="M15.1286 3.9317C13.6478 2.44733 11.6757 1.63092 9.57988 1.63092C5.25399 1.63092 1.7339 5.15101 1.7339 9.4769C1.7339 10.8588 2.09439 12.2089 2.78003 13.3999L1.66675 17.4643L5.82653 16.3722C6.97162 16.9977 8.26161 17.3264 9.57635 17.3264H9.57988C13.9022 17.3264 17.5001 13.8063 17.5001 9.48044C17.5001 7.38464 16.6095 5.41608 15.1286 3.9317ZM9.57988 16.0046C8.40652 16.0046 7.25789 15.6901 6.25771 15.0963L6.02091 14.955L3.55402 15.6017L4.21139 13.1949L4.05588 12.9475C3.40205 11.9085 3.05923 10.7103 3.05923 9.4769C3.05923 5.8826 5.98557 2.95626 9.58341 2.95626C11.3258 2.95626 12.9621 3.63483 14.192 4.86827C15.422 6.10172 16.1783 7.73806 16.1747 9.48044C16.1747 13.0783 13.1742 16.0046 9.57988 16.0046ZM13.1565 11.1203C12.9621 11.0214 11.9973 10.5478 11.817 10.4842C11.6368 10.417 11.506 10.3852 11.3753 10.5831C11.2445 10.781 10.8699 11.2193 10.7532 11.3536C10.6401 11.4843 10.5235 11.502 10.3291 11.4031C9.17698 10.827 8.42065 10.3746 7.6608 9.07047C7.45934 8.72411 7.86225 8.74885 8.23687 7.9996C8.30049 7.86883 8.26868 7.75573 8.2192 7.65678C8.16972 7.55782 7.77743 6.59297 7.61485 6.20068C7.45581 5.81898 7.29324 5.87199 7.17307 5.86492C7.05998 5.85786 6.92921 5.85786 6.79844 5.85786C6.66768 5.85786 6.45562 5.90733 6.27538 6.10172C6.09513 6.29963 5.58974 6.77322 5.58974 7.73806C5.58974 8.70291 6.29305 9.63594 6.38847 9.76671C6.48743 9.89748 7.77036 11.8766 9.73892 12.7284C10.983 13.2656 11.4707 13.3115 12.0927 13.2196C12.4709 13.1631 13.2519 12.7461 13.4145 12.2866C13.5771 11.8272 13.5771 11.4349 13.5276 11.3536C13.4817 11.2652 13.3509 11.2157 13.1565 11.1203Z" fill="#969696"/>
</g>
</g>
<defs>
<clipPath id="clip0_45_1085">
<rect width="20" height="20" fill="white" transform="translate(0 0.5)"/>
</clipPath>
<clipPath id="clip1_45_1085">
<rect width="15.8333" height="18.0952" fill="white" transform="translate(1.66675 0.5)"/>
</clipPath>
</defs>
</svg>
