<svg width="20" height="21" viewBox="0 0 20 21" fill="none" xmlns="http://www.w3.org/2000/svg">
<path d="M18.75 10.4453C18.75 10.4023 18.75 10.3535 18.748 10.2969C18.7461 10.1387 18.7422 9.96094 18.7383 9.77148C18.7227 9.22656 18.6953 8.68359 18.6523 8.17187C18.5938 7.4668 18.5078 6.87891 18.3906 6.4375C18.267 5.97685 18.0246 5.55674 17.6876 5.21913C17.3507 4.88153 16.9311 4.63827 16.4707 4.51367C15.918 4.36523 14.8359 4.27344 13.3125 4.2168C12.5879 4.18945 11.8125 4.17187 11.0371 4.16211C10.7656 4.1582 10.5137 4.15625 10.2871 4.1543H9.71289C9.48633 4.15625 9.23438 4.1582 8.96289 4.16211C8.1875 4.17187 7.41211 4.18945 6.6875 4.2168C5.16406 4.27539 4.08008 4.36719 3.5293 4.51367C3.06875 4.63797 2.64896 4.88112 2.312 5.21877C1.97504 5.55642 1.73273 5.9767 1.60938 6.4375C1.49023 6.87891 1.40625 7.4668 1.34766 8.17187C1.30469 8.68359 1.27734 9.22656 1.26172 9.77148C1.25586 9.96094 1.25391 10.1387 1.25195 10.2969C1.25195 10.3535 1.25 10.4023 1.25 10.4453V10.5547C1.25 10.5977 1.25 10.6465 1.25195 10.7031C1.25391 10.8613 1.25781 11.0391 1.26172 11.2285C1.27734 11.7734 1.30469 12.3164 1.34766 12.8281C1.40625 13.5332 1.49219 14.1211 1.60938 14.5625C1.85938 15.498 2.59375 16.2363 3.5293 16.4863C4.08008 16.6348 5.16406 16.7266 6.6875 16.7832C7.41211 16.8105 8.1875 16.8281 8.96289 16.8379C9.23438 16.8418 9.48633 16.8438 9.71289 16.8457H10.2871C10.5137 16.8438 10.7656 16.8418 11.0371 16.8379C11.8125 16.8281 12.5879 16.8105 13.3125 16.7832C14.8359 16.7246 15.9199 16.6328 16.4707 16.4863C17.4062 16.2363 18.1406 15.5 18.3906 14.5625C18.5098 14.1211 18.5938 13.5332 18.6523 12.8281C18.6953 12.3164 18.7227 11.7734 18.7383 11.2285C18.7441 11.0391 18.7461 10.8613 18.748 10.7031C18.748 10.6465 18.75 10.5977 18.75 10.5547V10.4453ZM17.3438 10.5469C17.3438 10.5879 17.3438 10.6328 17.3418 10.6855C17.3398 10.8379 17.3359 11.0059 17.332 11.1875C17.3184 11.707 17.291 12.2266 17.25 12.709C17.1973 13.3379 17.123 13.8535 17.0312 14.1992C16.9102 14.6504 16.5547 15.0078 16.1055 15.127C15.6953 15.2363 14.6621 15.3242 13.2578 15.377C12.5469 15.4043 11.7812 15.4219 11.0176 15.4316C10.75 15.4355 10.502 15.4375 10.2793 15.4375H9.7207L8.98242 15.4316C8.21875 15.4219 7.45508 15.4043 6.74219 15.377C5.33789 15.3223 4.30273 15.2363 3.89453 15.127C3.44531 15.0059 3.08984 14.6504 2.96875 14.1992C2.87695 13.8535 2.80273 13.3379 2.75 12.709C2.70898 12.2266 2.68359 11.707 2.66797 11.1875C2.66211 11.0059 2.66016 10.8359 2.6582 10.6855C2.6582 10.6328 2.65625 10.5859 2.65625 10.5469V10.4531C2.65625 10.4121 2.65625 10.3672 2.6582 10.3145C2.66016 10.1621 2.66406 9.99414 2.66797 9.8125C2.68164 9.29297 2.70898 8.77344 2.75 8.29102C2.80273 7.66211 2.87695 7.14648 2.96875 6.80078C3.08984 6.34961 3.44531 5.99219 3.89453 5.87305C4.30469 5.76367 5.33789 5.67578 6.74219 5.62305C7.45313 5.5957 8.21875 5.57812 8.98242 5.56836C9.25 5.56445 9.49805 5.5625 9.7207 5.5625H10.2793L11.0176 5.56836C11.7812 5.57812 12.5449 5.5957 13.2578 5.62305C14.6621 5.67773 15.6973 5.76367 16.1055 5.87305C16.5547 5.99414 16.9102 6.34961 17.0312 6.80078C17.123 7.14648 17.1973 7.66211 17.25 8.29102C17.291 8.77344 17.3164 9.29297 17.332 9.8125C17.3379 9.99414 17.3398 10.1641 17.3418 10.3145C17.3418 10.3672 17.3438 10.4141 17.3438 10.4531V10.5469ZM8.26172 13.1172L12.793 10.4805L8.26172 7.88281V13.1172Z" fill="#969696"/>
</svg>
